<?xml version="1.0" standalone="no"?><!DOCTYPE svg PUBLIC "-//W3C//DTD SVG 1.1//EN" "http://www.w3.org/Graphics/SVG/1.1/DTD/svg11.dtd"><svg t="1535880364936" class="icon" style="" viewBox="0 0 1024 1024" version="1.1" xmlns="http://www.w3.org/2000/svg" p-id="764" data-spm-anchor-id="a313x.7781069.0.i0" xmlns:xlink="http://www.w3.org/1999/xlink" width="200" height="200"><defs><style type="text/css"></style></defs><path d="M284.8 697.6l227.2 227.2 227.2-227.2c64-60.8 102.4-144 102.4-236.8 0-182.4-147.2-329.6-329.6-329.6S182.4 278.4 182.4 460.8c0 92.8 41.6 179.2 102.4 236.8zM512 195.2c147.2 0 265.6 118.4 265.6 265.6 0 70.4-28.8 134.4-73.6 182.4l-12.8 12.8c-3.2 3.2-9.6 6.4-12.8 12.8L512 832l-169.6-169.6c-3.2-3.2-9.6-6.4-12.8-12.8l-9.6-6.4c-44.8-48-73.6-112-73.6-182.4 0-147.2 118.4-265.6 265.6-265.6z" fill="#707070" p-id="765"></path><path d="M512 604.8c80 0 144-64 144-144s-64-144-144-144-144 64-144 144 64 144 144 144z m0-259.2c64 0 112 51.2 112 112 0 64-51.2 112-112 112s-112-51.2-112-112 48-112 112-112z" fill="#707070" p-id="766"></path></svg>