<?xml version="1.0" standalone="no"?><!DOCTYPE svg PUBLIC "-//W3C//DTD SVG 1.1//EN" "http://www.w3.org/Graphics/SVG/1.1/DTD/svg11.dtd"><svg t="1535961463096" class="icon" style="" viewBox="0 0 1024 1024" version="1.1" xmlns="http://www.w3.org/2000/svg" p-id="5355" xmlns:xlink="http://www.w3.org/1999/xlink" width="200" height="200"><defs><style type="text/css"></style></defs><path d="M987.006293 965.67296H39.857493a17.537707 17.537707 0 0 1-17.54112-17.537707v-35.08224a17.537707 17.537707 0 0 1 17.54112-17.54112H127.556267V158.839467a70.161067 70.161067 0 0 1 70.157653-70.157654h350.798507a70.161067 70.161067 0 0 1 70.157653 70.157654v175.397546h210.476373a70.161067 70.161067 0 0 1 70.161067 70.178134v491.10016h87.698773a17.537707 17.537707 0 0 1 17.54112 17.54112v35.078826a17.537707 17.537707 0 0 1-17.54112 17.537707zM338.049707 264.07936a17.537707 17.537707 0 0 0-17.54112-17.54112H250.32704a17.537707 17.537707 0 0 0-17.54112 17.54112v70.161067a17.537707 17.537707 0 0 0 17.54112 17.54112h70.161067a17.537707 17.537707 0 0 0 17.54112-17.54112z m0 210.476373a17.537707 17.537707 0 0 0-17.54112-17.54112H250.32704a17.537707 17.537707 0 0 0-17.54112 17.54112v70.147414a17.537707 17.537707 0 0 0 17.54112 17.54112h70.161067a17.537707 17.537707 0 0 0 17.5616-17.54112z m0 210.476374a17.537707 17.537707 0 0 0-17.54112-17.54112H250.32704a17.537707 17.537707 0 0 0-17.54112 17.54112v70.157653a17.537707 17.537707 0 0 0 17.54112 17.54112h70.161067a17.537707 17.537707 0 0 0 17.54112-17.54112z m175.397546-420.95616a17.537707 17.537707 0 0 0-17.54112-17.54112h-70.17472a17.537707 17.537707 0 0 0-17.54112 17.54112v70.161066a17.537707 17.537707 0 0 0 17.54112 17.54112h70.161067a17.537707 17.537707 0 0 0 17.54112-17.54112z m0 210.476373a17.537707 17.537707 0 0 0-17.54112-17.54112h-70.17472a17.537707 17.537707 0 0 0-17.54112 17.54112v70.150827a17.537707 17.537707 0 0 0 17.54112 17.54112h70.161067a17.537707 17.537707 0 0 0 17.54112-17.54112z m0 210.476373a17.537707 17.537707 0 0 0-17.54112-17.54112h-70.17472a17.537707 17.537707 0 0 0-17.54112 17.54112v70.157654a17.537707 17.537707 0 0 0 17.54112 17.54112h70.161067a17.537707 17.537707 0 0 0 17.54112-17.54112z m280.623787-210.469546a17.537707 17.537707 0 0 0-17.54112-17.54112h-70.161067a17.537707 17.537707 0 0 0-17.54112 17.54112v70.144a17.537707 17.537707 0 0 0 17.54112 17.54112h70.161067a17.537707 17.537707 0 0 0 17.54112-17.54112z m0 210.476373a17.537707 17.537707 0 0 0-17.54112-17.54112h-70.161067a17.537707 17.537707 0 0 0-17.54112 17.54112v70.157653a17.537707 17.537707 0 0 0 17.54112 17.54112h70.161067a17.537707 17.537707 0 0 0 17.54112-17.54112z" fill="" p-id="5356"></path></svg>