<?xml version="1.0" standalone="no"?><!DOCTYPE svg PUBLIC "-//W3C//DTD SVG 1.1//EN" "http://www.w3.org/Graphics/SVG/1.1/DTD/svg11.dtd"><svg t="1535961495731" class="icon" style="" viewBox="0 0 1024 1024" version="1.1" xmlns="http://www.w3.org/2000/svg" p-id="5477" xmlns:xlink="http://www.w3.org/1999/xlink" width="200" height="200"><defs><style type="text/css"></style></defs><path d="M731.0336 52.5568c-144.9728 0-263.552 118.016-263.552 262.9888 0 111.1552 72.192 235.4688 132.352 320.256 48.128 67.6096 95.6672 120.32 119.7312 146.0992a15.6416 15.6416 0 0 0 10.88 4.608 15.6416 15.6416 0 0 0 10.88-4.608 1440.4352 1440.4352 0 0 0 119.7568-146.0992c60.16-84.7872 132.352-209.1008 132.352-320.256 1.1264-144.9472-117.4528-262.9888-262.4-262.9888z m0 419.968a160.512 160.512 0 0 1-160.4352-160.4096c0-88.2432 72.192-160.4352 160.4352-160.4352 88.7808 0 160.9728 72.192 160.9728 160.4352 0 88.2176-72.192 160.4096-160.9728 160.4096z m-256.6912 237.7728L77.312 666.752l56.7296-195.3792c3.456-11.4432 13.7728-19.456 25.8048-19.456h295.04a732.3392 732.3392 0 0 0 50.9952 109.4144l-31.488 148.9664z m-53.2736 254.3872H26.88c-8.576 0-16.0256-4.0192-21.1968-10.3168a24.6272 24.6272 0 0 1-3.9936-23.5008l53.8368-186.1888 402.7904 44.1088-37.248 175.872z m487.552-326.016l35.5328 123.1872-119.168-13.184a1415.8848 1415.8848 0 0 0 69.3248-89.3696c4.5824-6.8864 9.728-13.7472 14.336-20.6336z m59.5968 205.696l24.6272 84.7872a26.2912 26.2912 0 0 1-24.6272 35.5328H502.9888l34.944-167.296 430.2848 46.976z"  p-id="5478"></path></svg>