<?xml version="1.0" standalone="no"?><!DOCTYPE svg PUBLIC "-//W3C//DTD SVG 1.1//EN" "http://www.w3.org/Graphics/SVG/1.1/DTD/svg11.dtd"><svg t="1535960202790" class="icon" style="" viewBox="0 0 1024 1024" version="1.1" xmlns="http://www.w3.org/2000/svg" p-id="8139" xmlns:xlink="http://www.w3.org/1999/xlink" width="200" height="200"><defs><style type="text/css"></style></defs><path d="M782.599 51.625H54.74v797.629a120.905 120.905 0 0 0 35.625 85.41 120.868 120.868 0 0 0 85.595 35.161h301.368l7.109-7.19L896.86 544.603l6.958-7.038V172.437c-0.14-66.828-54.404-120.907-121.219-120.812zM508.593 713.97c0.009 8.772-3.467 17.183-9.68 23.372s-14.648 9.647-23.422 9.6c-18.288 0-33.135-14.752-33.135-32.971v-8.751a32.962 32.962 0 0 1 9.716-23.375 32.963 32.963 0 0 1 23.42-9.597 33.056 33.056 0 0 1 23.399 9.621 33.01 33.01 0 0 1 9.704 23.351v8.75z m41.326-226.714c-40.141 38.803-60.185 72.263-60.185 100.118v23.756s-3.214 20.372-26.353 20.372c-23.142 0-26.353-20.372-26.353-20.372v-34.205c0-33.344 20.941-71.075 62.792-113.253 31.554-33.296 49.32-60.626 52.578-81.732-1.629-47.411-25.865-73.729-72.635-78.977-70.309-3.488-104.63 31.566-102.92 105.363 0 0-1.501 22.782-27.086 22.782-25.57 0-28.179-22.782-28.179-22.782 0-110.596 51.042-165.048 153.065-163.347 88.689 3.583 134.602 49.293 138.102 136.925-0.002 31.635-20.827 66.856-62.826 105.352z" p-id="8140"></path><path d="M806.043 694.341L635.677 864.054l-3.538 3.502-0.977 4.876-16.509 82.348-4.84 24.2 24.268-4.84 82.676-16.474 4.923-0.977 3.536-3.538 170.143-169.444 0.086-0.085zM956.593 699.414l-66.121-65.886-11.702-11.625-11.718 11.625-37.84 37.688 89.46 89.291 0.107-0.106 37.895-37.731 11.634-11.634z" p-id="8141"></path></svg>