<?xml version="1.0" standalone="no"?><!DOCTYPE svg PUBLIC "-//W3C//DTD SVG 1.1//EN" "http://www.w3.org/Graphics/SVG/1.1/DTD/svg11.dtd"><svg t="1535961286058" class="icon" style="" viewBox="0 0 1024 1024" version="1.1" xmlns="http://www.w3.org/2000/svg" p-id="2862" xmlns:xlink="http://www.w3.org/1999/xlink" width="200" height="200"><defs><style type="text/css"></style></defs><path d="M986.014486 503.944564V366.446713s0.256-60.365935-27.048971-108.779882c-30.123967-53.208942-110.57088-97.529894-110.57088-97.529895l-83.521909-48.224947 0.322 0.639999-22.316976-12.852986h0.255999L624.049879 30.959076S571.986935 0.516109 516.414995 0.00411c-61.142934-0.511999-139.732849 46.940949-139.732848 46.940949l-83.52691 48.219948h0.45l-39.583957 22.828975-100.977891 58.323937s-52.440943 29.929968-80.646912 77.832916c-31.013966 52.629943-29.223968 144.399843-29.223969 144.399843V624.620433s-1.794998 91.8299 29.223969 144.465843c28.205969 47.896948 80.646913 77.826916 80.646912 77.826916l87.225906 50.332945 0.382999 0.578 99.254893 57.296938h0.121999l36.647961 21.103977s78.589915 47.513948 139.732848 46.940949c55.57194-0.572999 107.634883-30.952966 107.634884-30.952967l34.533962-19.891978h0.379l216.669765-125.151864s52.440943-29.929968 80.707912-77.832916c31.019966-52.629943 29.162968-144.465843 29.162969-144.465843V503.182565l0.515999 0.761999zM416.358104 277.03181c44.729952-48.777947 107.045884-44.889951 149.893837-29.479968a131.015858 131.015858 0 0 0-9.10699 8.298991l-90.376902 90.345902c-5.837994 5.832994-5.837994 15.348983 0 21.175977 2.833997 2.813997 6.579993 4.379995 10.584989 4.379995s7.760992-1.554998 10.585988-4.379995l90.345902-90.361902c18.76698-18.75998 43.779953-29.105968 70.393924-29.105969s51.616944 10.329989 70.388924 29.089969c38.805958 38.811958 38.805958 101.966889 0 140.792847L567.72994 569.155493 416.358104 417.792657c-38.826958-38.810958-37.10296-100.302891 0-140.760847z m232.924747 477.293482c-5.105994 3.187997-52.118944 31.633966-98.793893 31.633966-9.894989 0-19.763979-1.268999-29.233968-4.343995l-122.460867-31.602966-0.266-0.076c-0.4-0.118-44.597952-12.565986-126.179863-8.165991l-0.067-1.252999c-0.067 0.005-0.133 0.005-0.2 0.005-8.527991 0-15.434983-6.594993-15.434983-14.713984 0-7.689992 6.164993-13.992985 14.043985-14.667984l-0.082-1.468998c85.009908-4.583995 132.037857 8.016991 136.678852 9.33199l123.018866 31.740965 0.522 0.184c34.139963 11.332988 84.927908-13.479985 101.616889-23.999974l0.655-0.389c114.209876-64.77593 115.554875-92.771899 115.323875-95.749896-0.097-1.272999-0.859999-2.331997-1.769998-3.145996l-168.710817 44.199952c-0.128 0.168-0.282 0.337-0.41 0.520999-5.479994 6.701993-17.414981 14.867984-34.502963 17.655981a72.669921 72.669921 0 0 1-11.577987 0.925999c-12.304987 0-27.98597-3.079997-45.149951-13.849985l-50.789945-27.24297 0.578999-1.069999c-4.471995-2.587997-7.459992-7.259992-7.459992-12.595987 0-8.139991 6.912993-14.739984 15.435984-14.739984 2.148998 0 4.189995 0.425 6.052993 1.171999l0.587999-1.099999 51.816944 27.79097 0.506 0.323c27.161971 17.281981 46.889949 5.391994 49.637946 2.337997 4.578995-5.596994 6.532993-10.943988 5.944993-16.269982-0.925999-8.379991-7.939991-15.971983-10.769988-18.50498l-121.795868-71.257923c-63.394931-27.82197-151.566836 47.109949-152.451835 47.866948l-0.767999-0.894999c-2.506997 1.692998-5.570994 2.685997-8.87099 2.685997-8.497991 0-15.384983-6.564993-15.384983-14.678984 0-4.169995 1.826998-7.939991 4.757994-10.599988l-0.730999-0.849999c4.255995-3.683996 105.264886-89.686903 187.436797-52.491943l0.761999 0.342999 125.387864 73.355921 0.869999 0.684999c2.132998 1.677998 20.913977 17.072981 23.538975 40.816956 0.107 1.023999 0.19 2.041998 0.23 3.059996l158.504828-41.517955 4.542995 1.513999c8.98399 3.008997 24.685973 13.189986 26.547971 32.339965 3.284996 33.827963-38.375958 74.11292-131.137858 126.752862z" p-id="2863"></path></svg>