<?xml version="1.0" standalone="no"?><!DOCTYPE svg PUBLIC "-//W3C//DTD SVG 1.1//EN" "http://www.w3.org/Graphics/SVG/1.1/DTD/svg11.dtd"><svg t="1535961400880" class="icon" style="" viewBox="0 0 1024 1024" version="1.1" xmlns="http://www.w3.org/2000/svg" p-id="3228" xmlns:xlink="http://www.w3.org/1999/xlink" width="200" height="200"><defs><style type="text/css"></style></defs><path d="M73.142857 1024V803.768997c3.364539-38.297228 6.582793-76.609084 10.239901-114.891684 8.923342-89.906327 83.235763-161.088264 181.831376-178.832549 34.815662-6.246339 52.516061 0.819192 68.022197 29.15446 52.516061 96.138038 108.542946 190.901003 169.104643 296.459748 27.647731-42.641871 51.345787-78.291354 74.166136-114.277289 36.717358-57.65064 76.65297-114.101749 108.250377-173.814998 22.235213-42.217647 53.101198-45.348131 96.693918-33.367447 98.741898 27.311278 144.090029 92.905155 169.397212 173.244489V1024H73.142857z m437.243753-556.099741c-153.159655 1.067875-275.160756-103.057285-275.014472-234.669263S356.934386-1.160327 511.264315 0.009947c150.965391 1.141017 267.700257 103.130427 267.553973 234.05487-0.146284 129.988223-118.051425 232.796824-268.431678 233.835442z" p-id="3229"></path></svg>