<?xml version="1.0" standalone="no"?><!DOCTYPE svg PUBLIC "-//W3C//DTD SVG 1.1//EN" "http://www.w3.org/Graphics/SVG/1.1/DTD/svg11.dtd"><svg t="1535961428049" class="icon" style="" viewBox="0 0 1024 1024" version="1.1" xmlns="http://www.w3.org/2000/svg" p-id="4416" xmlns:xlink="http://www.w3.org/1999/xlink" width="200" height="200"><defs><style type="text/css"></style></defs><path d="M671.3 367.172c10.224 0 20.448 0.756 30.708 1.8C674.468 240.524 537.2 145.269 380.6 145.269 205.568 145.269 62 264.501 62 416.205c0 87.517 47.628 159.48 127.368 215.244l-31.752 95.94L269.108 671.3c39.852 7.776 71.964 15.84 111.492 15.84 9.864 0 19.764-0.324 29.628-1.403-6.372-21.168-9.864-43.74-9.864-66.672-0.036-138.997 119.592-251.892 270.936-251.892z m-171.468-86.436c23.976 0 39.852 15.876 39.852 39.852s-15.876 39.852-39.852 39.852c-24.012 0-47.989-15.876-47.989-39.852 0.36-23.94 24.336-39.852 47.989-39.852z m-222.949 79.74c-24.012 0-47.989-15.876-47.989-39.852s23.976-39.852 47.989-39.852c23.976 0 39.817 15.876 39.817 39.852 0 23.617-15.84 39.852-39.817 39.852zM962 615.536c0-127.332-127.368-231.083-270.612-231.083-151.703 0-270.936 103.752-270.936 231.083 0 127.728 119.268 231.12 270.936 231.12 31.752 0 63.828-8.136 95.58-15.876l87.517 47.989-23.976-79.74c63.864-47.989 111.492-111.889 111.492-183.492z m-358.452-39.853c-15.84 0-31.752-15.84-31.752-31.752 0-15.84 15.876-31.752 31.752-31.752 24.011 0 39.852 15.876 39.852 31.752s-15.84 31.752-39.852 31.752z m175.355 0c-15.876 0-31.752-15.84-31.752-31.752 0-15.84 15.84-31.752 31.752-31.752 23.976 0 39.852 15.876 39.852 31.752s-16.236 31.752-39.852 31.752z m0 0z" p-id="4417"></path></svg>