<?xml version="1.0" standalone="no"?><!DOCTYPE svg PUBLIC "-//W3C//DTD SVG 1.1//EN" "http://www.w3.org/Graphics/SVG/1.1/DTD/svg11.dtd"><svg t="1535960519114" class="icon" style="" viewBox="0 0 1024 1024" version="1.1" xmlns="http://www.w3.org/2000/svg" p-id="9494" xmlns:xlink="http://www.w3.org/1999/xlink" width="200" height="200"><defs><style type="text/css"></style></defs><path d="M964.835556 441.457778L857.884444 341.333333 580.266667 86.471111c-18.204444-18.204444-45.511111-29.582222-72.817778-29.582222-27.306667 0-54.613333 11.377778-72.817778 29.582222L59.164444 441.457778c-31.857778 31.857778-25.031111 56.888889-22.755555 63.715555 4.551111 11.377778 15.928889 25.031111 43.235555 25.031111h54.613334c13.653333 0 22.755556 11.377778 22.755555 22.755556v302.648889c0 52.337778 36.408889 109.226667 95.573334 109.226667H766.862222c59.164444 0 95.573333-56.888889 95.573334-109.226667V555.235556c0-13.653333 11.377778-22.755556 22.755555-22.755556h54.613333c27.306667 0 38.684444-13.653333 43.235556-27.306667 6.826667-6.826667 13.653333-29.582222-18.204444-63.715555z m-307.2 386.844444c0 29.582222-22.755556 52.337778-52.337778 52.337778h-184.32c-29.582222 0-52.337778-25.031111-52.337778-52.337778V575.715556c0-29.582222 22.755556-52.337778 52.337778-52.337778h184.32c29.582222 0 52.337778 25.031111 52.337778 52.337778v252.586666z" fill="" p-id="9495"></path></svg>