<?xml version="1.0" standalone="no"?><!DOCTYPE svg PUBLIC "-//W3C//DTD SVG 1.1//EN" "http://www.w3.org/Graphics/SVG/1.1/DTD/svg11.dtd"><svg t="1535961548047" class="icon" style="" viewBox="0 0 1024 1024" version="1.1" xmlns="http://www.w3.org/2000/svg" p-id="7698" xmlns:xlink="http://www.w3.org/1999/xlink" width="200" height="200"><defs><style type="text/css"></style></defs><path d="M874 92.6c-23.8-53.9-66.5-83.6-120.1-83.6-57.3 0-126.6 35.7-180.8 93.3-27.9 29.6-40.3 44.8-40.3 44.8-13.2 16.3-34.8 16.3-48 0 0 0-12.3-15.2-40.3-44.8-54.1-57.6-123.3-93.3-180.7-93.3-53.7 0-96.3 29.7-120.1 83.6-19.6 44.4-19.7 83.5-0.3 116.4 35.6 60.4 122.8 72.4 148.8 74.7 18.2 1.6 48.1 2.4 88.9 2.4 50.7 0 89.8-0.9 89.8-0.9 20.9-0.5 55.1-0.5 76 0 0 0 39.1 0.9 89.8 0.9 40.8 0 70.7-0.8 88.9-2.4 25.9-2.2 113.2-14.2 148.7-74.7 19.4-32.9 19.3-72-0.3-116.4m-445.4 92.2c12.8 16.5 6.2 30.4-14.6 30.7 0 0-13.3 0.2-41 0.2-33.3 0-57.3-0.6-71.4-1.8-25.5-2.2-72.7-13-88.2-39.3-8-13.6-7.1-31.1 2.9-53.7 12.4-28 31-41.6 57-41.6 35.1 0 81.3 25 117.8 63.8 29.1 30.8 37.5 41.7 37.5 41.7m380.5-9.1c-16.2 27.5-65.4 38.7-91.9 41-14.7 1.3-36.3 1.5-36.3 1.5-20.9 0.2-38 0.4-38 0.4-28.8 0-44.3-0.3-44.3-0.3-20.9-0.4-27.5-14.2-14.6-30.7 0 0 9.7-12.5 40-44.7 38-40.3 86.1-66.4 122.7-66.4 27.1 0 46.5 14.2 59.4 43.3 10.3 23.5 11.3 41.8 3 55.9M465.4 322.2V489.1c0 5.3 4.3 9.5 9.5 9.5h57c5.2 0 9.5-4.3 9.5-9.5V322.2h436.9c21 0 38 17.1 38 38.1v105c0 21.1-17 38.1-38 38.1h-47.5v467.3c0 21.1-17 38.1-38 38.1H114c-21 0-38-17.1-38-38.1V503.4h-38c-21 0-38-17.1-38-38.1V360.4c0-21.1 17-38.1 38-38.1h427.4z"  p-id="7699"></path></svg>