<?xml version="1.0" standalone="no"?><!DOCTYPE svg PUBLIC "-//W3C//DTD SVG 1.1//EN" "http://www.w3.org/Graphics/SVG/1.1/DTD/svg11.dtd"><svg t="1537421766606" class="icon" style="" viewBox="0 0 1103 1024" version="1.1" xmlns="http://www.w3.org/2000/svg" p-id="5100" xmlns:xlink="http://www.w3.org/1999/xlink" width="68.9375" height="64"><defs><style type="text/css"></style></defs><path d="M1062.357 499.579c0-243.866-225.821-441.556-504.302-441.556-278.509 0-504.33 197.69-504.33 441.556 0 243.866 225.821 441.556 504.33 441.556 75.208 0 146.315-14.833 210.444-40.691l146.789 83.145c4.381 2.472 9.935 2.16 14.065-1.222 4.102-3.353 5.609-8.838 4.186-13.697l-41.163-139.153c104.064-80.901 169.98-198.543 169.98-329.938v0zM380.011 518.505c-38.427 0-69.572-31.741-69.572-70.869 0-39.128 31.144-70.869 69.572-70.869 38.455 0 69.599 31.741 69.599 70.869 0 39.128-31.144 70.869-69.599 70.869v0zM739.979 518.505c-38.427 0-69.572-31.741-69.572-70.869 0-39.128 31.144-70.869 69.572-70.869 38.455 0 69.599 31.741 69.599 70.869 0 39.128-31.144 70.869-69.599 70.869v0z" p-id="5101"></path></svg>