<?xml version="1.0" standalone="no"?><!DOCTYPE svg PUBLIC "-//W3C//DTD SVG 1.1//EN" "http://www.w3.org/Graphics/SVG/1.1/DTD/svg11.dtd"><svg t="1535961509640" class="icon" style="" viewBox="0 0 1137 1024" version="1.1" xmlns="http://www.w3.org/2000/svg" p-id="5599" xmlns:xlink="http://www.w3.org/1999/xlink" width="222.0703125" height="200"><defs><style type="text/css"></style></defs><path d="M281.031111 160.824889l32.597333-87.04A113.777778 113.777778 0 0 1 420.181333 0h297.415111a113.777778 113.777778 0 0 1 106.552889 73.841778l32.597334 87.04h121.742222a159.288889 159.288889 0 0 1 159.288889 159.288889V864.711111a159.288889 159.288889 0 0 1-159.288889 159.288889H159.288889A159.288889 159.288889 0 0 1 0 864.711111V320.113778a159.288889 159.288889 0 0 1 159.288889-159.288889h121.742222z m288.938667 674.133333a256 256 0 1 0 0-512 256 256 0 0 0 0 512zM568.888889 754.062222a170.666667 170.666667 0 1 1 0-341.333333 170.666667 170.666667 0 0 1 0 341.333333z"  p-id="5600"></path></svg>