<?xml version="1.0" standalone="no"?><!DOCTYPE svg PUBLIC "-//W3C//DTD SVG 1.1//EN" "http://www.w3.org/Graphics/SVG/1.1/DTD/svg11.dtd"><svg t="1535961574035" class="icon" style="" viewBox="0 0 1024 1024" version="1.1" xmlns="http://www.w3.org/2000/svg" p-id="9674" xmlns:xlink="http://www.w3.org/1999/xlink" width="200" height="200"><defs><style type="text/css"></style></defs><path d="M880.64 0H143.36C64.18432 0 0 64.18432 0 143.36v737.28c0 79.17056 64.18432 143.36 143.36 143.36h737.28c79.17568 0 143.36-64.18944 143.36-143.36V143.36c0-79.17568-64.18432-143.36-143.36-143.36z m-155.96544 579.2256h133.12v139.8272h-133.12v-139.8272z m-186.2656-248.192h133.15072v388.01408h-133.15072V331.0336zM352.1792 161.6384h133.13024v557.4144H352.1792V161.6384zM165.9392 443.648h133.12512v275.4048H165.9392V443.648z m754.21184 418.7136H103.84896v-89.15968h816.30208v89.15968z" p-id="9675"></path></svg>