<?xml version="1.0" standalone="no"?><!DOCTYPE svg PUBLIC "-//W3C//DTD SVG 1.1//EN" "http://www.w3.org/Graphics/SVG/1.1/DTD/svg11.dtd"><svg t="1535961532742" class="icon" style="" viewBox="0 0 1071 1024" version="1.1" xmlns="http://www.w3.org/2000/svg" p-id="7575" xmlns:xlink="http://www.w3.org/1999/xlink" width="209.1796875" height="200"><defs><style type="text/css"></style></defs><path d="M504.008326 708.272149c0-146.327081 120.109608-264.938547 268.128556-264.938547a272.674639 272.674639 0 0 1 49.890689 4.597744V100.24632C822.027571 45.112135 776.373005 0 720.580155 0H101.460331C45.667481 0 0.012915 45.112135 0.012915 100.24632v772.730972c0 55.134184 45.654566 100.24632 101.447416 100.24632h619.106909a101.860696 101.860696 0 0 0 19.462923-1.898507c-132.908384-15.640079-236.021836-127.445334-236.021837-263.052956zM109.015613 277.608174H290.846061c15.601334 0 28.24513 18.326401 28.24513 34.870531s-12.643796 30.027402-28.24513 30.027402H109.015613c-15.601334 0-28.24513-13.444527-28.245131-30.027402s12.656711-34.870531 28.245131-34.870531z m8.691802 139.146334h250.706205c21.503494 0 38.93876 17.099475 38.93876 33.695265s-17.435266 31.254328-38.93876 31.254328H117.72033C96.216836 481.704101 78.781571 468.259574 78.781571 451.6767s17.422351-34.922191 38.938759-34.922192z m0 142.672133H442.468296c21.503494 0 38.93876 17.099475 38.93876 33.695265s-17.435266 34.870531-38.93876 34.870532H117.72033C96.203921 628.057013 78.781571 610.931707 78.781571 594.335917s17.422351-34.909276 38.938759-34.909276zM1030.010918 1016.10145L868.792828 843.376085a294.526839 294.526839 0 0 0 35.180492-33.57903l159.267922 170.555643c9.763749 10.525734 12.308006 25.223018 2.440938 35.748752a24.086497 24.086497 0 0 1-35.671262 0z" p-id="7576"></path><path d="M768.443188 472.172823c-130.054166 0-235.376086 104.133738-235.376086 232.702678S638.479427 937.57818 768.443188 937.57818s235.376086-104.172483 235.376086-232.702679S898.497355 472.172823 768.443188 472.172823z m0 402.393015c-94.770355 0-171.653419-75.940268-171.653418-169.690337s76.818489-169.703252 171.653418-169.703252 171.640504 75.940268 171.640504 169.703252S863.278118 874.565838 768.443188 874.565838z" p-id="7577"></path></svg>