<?xml version="1.0" standalone="no"?><!DOCTYPE svg PUBLIC "-//W3C//DTD SVG 1.1//EN" "http://www.w3.org/Graphics/SVG/1.1/DTD/svg11.dtd"><svg t="1535961367693" class="icon" style="" viewBox="0 0 1024 1024" version="1.1" xmlns="http://www.w3.org/2000/svg" p-id="3106" xmlns:xlink="http://www.w3.org/1999/xlink" width="200" height="200"><defs><style type="text/css"></style></defs><path d="M285.435 429.985c-22.621 0-41.215-18.535-41.215-41.215s18.535-41.215 41.215-41.215h267.778c22.621 0 41.215 18.535 41.215 41.215s-18.594 41.215-41.215 41.215h-267.778zM285.435 594.727c-22.621 0-41.215-18.535-41.215-41.215 0-22.621 18.535-41.156 41.215-41.156h494.345c22.681 0 41.215 18.535 41.215 41.156 0 22.681-18.535 41.215-41.215 41.215h-494.345zM38.263 481.444c0 99.366 38.55 186.831 102.979 254.692v188.133c0 30.26 20.134 62.297 82.371 20.667 1.954-1.244 84.858-53.769 131.521-83.259 49.149 13.916 101.914 21.436 156.866 21.436 261.68 0 473.737-168.473 473.737-401.61 0-233.197-212.056-422.277-473.737-422.277-261.621 0-473.737 189.021-473.737 422.218z" p-id="3107"></path></svg>