<?xml version="1.0" standalone="no"?><!DOCTYPE svg PUBLIC "-//W3C//DTD SVG 1.1//EN" "http://www.w3.org/Graphics/SVG/1.1/DTD/svg11.dtd"><svg t="1535961239284" class="icon" style="" viewBox="0 0 1024 1024" version="1.1" xmlns="http://www.w3.org/2000/svg" p-id="2738" xmlns:xlink="http://www.w3.org/1999/xlink" width="200" height="200"><defs><style type="text/css"></style></defs><path d="M363.008 360.96m-194.048 0a194.048 194.048 0 1 0 388.096 0 194.048 194.048 0 1 0-388.096 0Z"  p-id="2739"></path><path d="M363.008 610.816c-76.8 0-147.456-6.144-205.824 30.208-89.6 56.32-148.992 148.48-152.576 252.928H4.096v19.968c0 22.016 13.824 40.448 38.4 56.32 20.48 13.312 45.568 20.48 71.168 20.48h500.224c30.208 0 59.392-9.728 81.408-27.648 17.408-14.336 27.136-30.72 27.136-48.64v-19.968c-3.584-104.448-62.976-196.608-152.576-252.928-58.88-36.864-130.048-30.72-206.848-30.72zM659.456 40.96c-82.944 0-154.112 52.224-181.76 125.44 70.656 36.352 118.784 111.104 118.784 197.632 0 17.92-2.048 35.84-6.144 52.736 21.504 8.192 44.544 12.8 69.12 12.8 107.008 0 194.048-87.04 194.048-194.048s-87.04-194.56-194.048-194.56z"  p-id="2740"></path><path d="M1017.856 768.512c-3.584-104.448-62.976-196.608-152.576-252.928-58.368-36.864-129.024-30.208-205.824-30.208-34.304 0-67.584-1.024-98.816 0.512-25.088 38.912-61.952 69.632-104.96 86.016 160.256 9.728 289.792 135.168 305.664 293.888h148.48c30.208 0 59.392-9.728 81.408-27.648 17.408-14.336 27.136-30.72 27.136-48.64 0-9.216 0-15.872-0.512-20.992z"  p-id="2741"></path></svg>